<svg width="94" height="110" viewBox="0 0 94 110" fill="none" xmlns="http://www.w3.org/2000/svg">
<g filter="url(#filter0_f_235_35)">
<ellipse cx="47.0002" cy="103" rx="14" ry="4.99999" fill="#A76545" fill-opacity="0.39"/>
</g>
<g filter="url(#filter1_d_235_35)">
<path fill-rule="evenodd" clip-rule="evenodd" d="M47 4C70.196 4 89 22.804 89 46C89 63.785 77.9455 78.9882 62.3327 85.1133L49.3922 102.801C49.1224 103.171 48.7642 103.474 48.3479 103.682C47.9315 103.891 47.4692 104 47 104C46.5308 104 46.0685 103.891 45.6521 103.682C45.2358 103.474 44.8776 103.171 44.6078 102.801L31.6673 85.1133C16.0545 78.9882 5 63.785 5 46C5 22.804 23.804 4 47 4Z" fill="white"/>
</g>
<path d="M77 46.0019C77 29.4334 63.5685 16.002 47 16.002C30.4315 16.002 17 29.4334 17 46.0019C17 62.5704 30.4315 76.0018 47 76.0018C63.5685 76.0018 77 62.5704 77 46.0019Z" fill="#A76545"/>
<g clip-path="url(#clip0_235_35)">
<path d="M62.9581 45.5811C62.6055 44.6588 61.8756 44.2104 60.7263 44.2104H57.7558V43.2225C57.7558 42.2574 56.9708 41.4724 56.0058 41.4724H36.0216C35.0565 41.4724 34.2715 42.2574 34.2715 43.2225V49.0402C34.2715 55.3918 39.439 60.5593 45.7906 60.5593H46.237C50.665 60.5593 54.5151 58.0463 56.4425 54.3729H58.8309C61.2723 54.3729 63.2581 52.3868 63.2581 49.9457V48.5632C63.2581 47.4332 63.2581 46.3661 62.9581 45.5811ZM46.237 60.0076H45.7906C39.7429 60.0076 34.823 55.0876 34.823 49.0399V43.2222C34.823 42.5613 35.3606 42.0236 36.0216 42.0236H56.006C56.667 42.0236 57.2047 42.5613 57.2047 43.2222V44.4773C57.2047 44.4804 57.203 44.4829 57.203 44.4859C57.203 44.4889 57.2047 44.4914 57.2047 44.4944V49.0397C57.2047 50.8002 56.7853 52.4637 56.0449 53.9397C56.0284 53.9629 56.0149 53.9874 56.006 54.0153C54.1892 57.5681 50.4938 60.0076 46.237 60.0076ZM62.7067 49.9454C62.7067 52.0824 60.9679 53.8212 58.8309 53.8212H56.7127C57.3806 52.3636 57.7561 50.7451 57.7561 49.0399V44.7616H60.7266C61.6451 44.7616 62.1745 45.0751 62.4433 45.778C62.7072 46.4679 62.707 47.4856 62.707 48.5629V49.9454H62.7067Z" fill="white" stroke="white" stroke-width="2"/>
<path d="M39.8496 38.7674C39.9015 38.8537 39.9927 38.9011 40.0862 38.9011C40.1345 38.9011 40.1835 38.8885 40.2279 38.8617C40.3586 38.7834 40.4008 38.6141 40.3225 38.4834L39.4642 37.0526C38.98 36.2458 39.1068 35.2173 39.7721 34.552L40.0573 34.2669C40.6324 33.6917 40.9073 32.8672 40.7921 32.0618L40.3592 29.0309C40.3377 28.8801 40.1993 28.777 40.0473 28.7971C39.8968 28.8186 39.792 28.9581 39.8135 29.109L40.2464 32.1398C40.3371 32.7743 40.1207 33.4237 39.6674 33.8767L39.3823 34.1618C38.5377 35.0064 38.3769 36.3117 38.9915 37.3364L39.8496 38.7674Z" fill="white" stroke="white" stroke-width="2"/>
<path d="M45.2245 38.7674C45.2763 38.8537 45.3676 38.9011 45.4611 38.9011C45.5093 38.9011 45.5584 38.8885 45.6028 38.8617C45.7335 38.7834 45.7757 38.6141 45.6974 38.4834L44.839 37.0526C44.3548 36.2455 44.4814 35.2173 45.1467 34.552L45.4319 34.2669C46.007 33.6917 46.2819 32.8672 46.167 32.0618L45.7341 29.0309C45.7126 28.8801 45.5733 28.777 45.4222 28.7971C45.2717 28.8186 45.1669 28.9581 45.1884 29.109L45.6213 32.1398C45.712 32.7743 45.4953 33.4237 45.0422 33.8767L44.7571 34.1618C43.9126 35.0064 43.7518 36.3117 44.3664 37.3364L45.2245 38.7674Z" fill="white" stroke="white" stroke-width="2"/>
<path d="M50.5994 38.7674C50.6512 38.8537 50.7425 38.9011 50.836 38.9011C50.8842 38.9011 50.9333 38.8885 50.9777 38.8617C51.1084 38.7834 51.1506 38.6141 51.0723 38.4834L50.2136 37.0526C49.7294 36.2458 49.8563 35.2173 50.5216 34.552L50.8067 34.2669C51.3819 33.6917 51.6568 32.8672 51.5418 32.0618L51.1089 29.0309C51.0874 28.8801 50.9487 28.777 50.7971 28.7971C50.6465 28.8186 50.5418 28.9581 50.5633 29.109L50.9962 32.1398C51.0869 32.7743 50.8702 33.4237 50.4171 33.8767L50.132 34.1618C49.2874 35.0064 49.1267 36.3117 49.7413 37.3364L50.5994 38.7674Z" fill="white" stroke="white" stroke-width="2"/>
</g>
<defs>
<filter id="filter0_f_235_35" x="31.0002" y="96" width="32" height="14" filterUnits="userSpaceOnUse" color-interpolation-filters="sRGB">
<feFlood flood-opacity="0" result="BackgroundImageFix"/>
<feBlend mode="normal" in="SourceGraphic" in2="BackgroundImageFix" result="shape"/>
<feGaussianBlur stdDeviation="1" result="effect1_foregroundBlur_235_35"/>
</filter>
<filter id="filter1_d_235_35" x="0" y="0" width="94" height="110" filterUnits="userSpaceOnUse" color-interpolation-filters="sRGB">
<feFlood flood-opacity="0" result="BackgroundImageFix"/>
<feColorMatrix in="SourceAlpha" type="matrix" values="0 0 0 0 0 0 0 0 0 0 0 0 0 0 0 0 0 0 127 0" result="hardAlpha"/>
<feOffset dy="1"/>
<feGaussianBlur stdDeviation="2.5"/>
<feComposite in2="hardAlpha" operator="out"/>
<feColorMatrix type="matrix" values="0 0 0 0 0 0 0 0 0 0 0 0 0 0 0 0 0 0 0.1 0"/>
<feBlend mode="normal" in2="BackgroundImageFix" result="effect1_dropShadow_235_35"/>
<feBlend mode="normal" in="SourceGraphic" in2="effect1_dropShadow_235_35" result="shape"/>
</filter>
<clipPath id="clip0_235_35">
<rect width="35.2941" height="35.2941" fill="white" transform="translate(31.1177 27.4708)"/>
</clipPath>
</defs>
</svg>
