<svg width="94" height="110" viewBox="0 0 94 110" fill="none" xmlns="http://www.w3.org/2000/svg">
<g filter="url(#filter0_f_235_27)">
<ellipse cx="47.0002" cy="103" rx="14" ry="4.99999" fill="#0051FF" fill-opacity="0.39"/>
</g>
<g filter="url(#filter1_d_235_27)">
<path fill-rule="evenodd" clip-rule="evenodd" d="M47 4C70.196 4 89 22.804 89 46C89 63.785 77.9455 78.9882 62.3327 85.1133L49.3922 102.801C49.1224 103.171 48.7642 103.474 48.3479 103.682C47.9315 103.891 47.4692 104 47 104C46.5308 104 46.0685 103.891 45.6521 103.682C45.2358 103.474 44.8776 103.171 44.6078 102.801L31.6673 85.1133C16.0545 78.9882 5 63.785 5 46C5 22.804 23.804 4 47 4Z" fill="white"/>
</g>
<path d="M77 45.9999C77 29.4314 63.5685 16 47 16C30.4315 16 17 29.4314 17 45.9999C17 62.5684 30.4315 75.9998 47 75.9998C63.5685 75.9998 77 62.5684 77 45.9999Z" fill="#3478F5"/>
<path d="M32.9998 31.2656C31.5131 31.2656 30.2741 32.9175 31.7609 34.4042L45.2241 47.8675V58.4398H39.8553C38.8641 58.4398 38.1208 59.1832 38.1208 60.1743C38.1208 61.1655 38.8641 61.9089 39.8553 61.9089H54.1444C55.1356 61.9089 55.879 61.1655 55.879 60.1743C55.879 59.1832 55.1356 58.4398 54.1444 58.4398H48.7757V47.8675L62.2389 34.4042C63.7256 32.9175 62.4867 31.2656 60.9999 31.2656H32.9998ZM36.9644 34.652H56.9527L46.9586 44.7288L36.9644 34.652Z" fill="white"/>
<defs>
<filter id="filter0_f_235_27" x="31.0002" y="96" width="32" height="14" filterUnits="userSpaceOnUse" color-interpolation-filters="sRGB">
<feFlood flood-opacity="0" result="BackgroundImageFix"/>
<feBlend mode="normal" in="SourceGraphic" in2="BackgroundImageFix" result="shape"/>
<feGaussianBlur stdDeviation="1" result="effect1_foregroundBlur_235_27"/>
</filter>
<filter id="filter1_d_235_27" x="0" y="0" width="94" height="110" filterUnits="userSpaceOnUse" color-interpolation-filters="sRGB">
<feFlood flood-opacity="0" result="BackgroundImageFix"/>
<feColorMatrix in="SourceAlpha" type="matrix" values="0 0 0 0 0 0 0 0 0 0 0 0 0 0 0 0 0 0 127 0" result="hardAlpha"/>
<feOffset dy="1"/>
<feGaussianBlur stdDeviation="2.5"/>
<feComposite in2="hardAlpha" operator="out"/>
<feColorMatrix type="matrix" values="0 0 0 0 0 0 0 0 0 0 0 0 0 0 0 0 0 0 0.1 0"/>
<feBlend mode="normal" in2="BackgroundImageFix" result="effect1_dropShadow_235_27"/>
<feBlend mode="normal" in="SourceGraphic" in2="effect1_dropShadow_235_27" result="shape"/>
</filter>
</defs>
</svg>
