<svg width="94" height="110" viewBox="0 0 94 110" fill="none" xmlns="http://www.w3.org/2000/svg">
<g filter="url(#filter0_f_235_7)">
<ellipse cx="47" cy="103" rx="14" ry="5" fill="#AA60C8" fill-opacity="0.4"/>
</g>
<g filter="url(#filter1_d_235_7)">
<path fill-rule="evenodd" clip-rule="evenodd" d="M47 4C70.196 4 89 22.804 89 46C89 63.7851 77.9455 78.9883 62.3327 85.1133L49.3922 102.801C49.1224 103.172 48.7642 103.474 48.3479 103.682C47.9315 103.891 47.4692 104 47 104C46.5308 104 46.0685 103.891 45.6521 103.682C45.2358 103.474 44.8776 103.172 44.6078 102.801L31.6673 85.1133C16.0545 78.9883 5 63.7851 5 46C5 22.804 23.804 4 47 4Z" fill="white"/>
</g>
<path d="M77 46C77 29.4315 63.5685 16 47 16C30.4315 16 17 29.4315 17 46C17 62.5685 30.4315 76 47 76C63.5685 76 77 62.5685 77 46Z" fill="#AA60C8"/>
<g clip-path="url(#clip0_235_7)">
<path d="M55.9117 60.397H58.3529C59.5882 60.397 60.6029 59.4559 60.75 58.25L63.1764 34.0147H55.8235V28.0588H52.9264V34.0147H45.6176L46.0588 37.4559C48.5735 38.1471 50.9264 39.3971 52.3382 40.7794C54.4558 42.8676 55.9117 45.0294 55.9117 48.5588V60.397ZM30.8235 58.9265V57.4706H52.9264V58.9265C52.9264 59.7353 52.2647 60.397 51.4411 60.397H32.3088C31.4853 60.397 30.8235 59.7353 30.8235 58.9265ZM52.9264 48.6323C52.9264 36.8676 30.8235 36.8676 30.8235 48.6323H52.9264ZM30.8529 51.5882H52.9117V54.5294H30.8529V51.5882Z" fill="white"/>
</g>
<defs>
<filter id="filter0_f_235_7" x="31" y="96" width="32" height="14" filterUnits="userSpaceOnUse" color-interpolation-filters="sRGB">
<feFlood flood-opacity="0" result="BackgroundImageFix"/>
<feBlend mode="normal" in="SourceGraphic" in2="BackgroundImageFix" result="shape"/>
<feGaussianBlur stdDeviation="1" result="effect1_foregroundBlur_235_7"/>
</filter>
<filter id="filter1_d_235_7" x="0" y="0" width="94" height="110" filterUnits="userSpaceOnUse" color-interpolation-filters="sRGB">
<feFlood flood-opacity="0" result="BackgroundImageFix"/>
<feColorMatrix in="SourceAlpha" type="matrix" values="0 0 0 0 0 0 0 0 0 0 0 0 0 0 0 0 0 0 127 0" result="hardAlpha"/>
<feOffset dy="1"/>
<feGaussianBlur stdDeviation="2.5"/>
<feComposite in2="hardAlpha" operator="out"/>
<feColorMatrix type="matrix" values="0 0 0 0 0 0 0 0 0 0 0 0 0 0 0 0 0 0 0.1 0"/>
<feBlend mode="normal" in2="BackgroundImageFix" result="effect1_dropShadow_235_7"/>
<feBlend mode="normal" in="SourceGraphic" in2="effect1_dropShadow_235_7" result="shape"/>
</filter>
<clipPath id="clip0_235_7">
<rect width="35.2941" height="35.2941" fill="white" transform="translate(29.3529 26.5882)"/>
</clipPath>
</defs>
</svg>
