<svg width="100" height="116" viewBox="0 0 100 116" fill="none" xmlns="http://www.w3.org/2000/svg">
<g filter="url(#filter0_f_224_191)">
<ellipse cx="50" cy="107" rx="14" ry="5" fill="#FFD700" fill-opacity="0.4"/>
</g>
<g filter="url(#filter1_d_224_191)">
<path fill-rule="evenodd" clip-rule="evenodd" d="M50 8C73.196 8 92 26.804 92 50C92 67.7851 80.9455 82.9883 65.3327 89.1133L52.3922 106.801C52.1224 107.172 51.7642 107.474 51.3479 107.682C50.9315 107.891 50.4692 108 50 108C49.5308 108 49.0685 107.891 48.6521 107.682C48.2358 107.474 47.8776 107.172 47.6078 106.801L34.6673 89.1133C19.0545 82.9883 8 67.7851 8 50C8 26.804 26.804 8 50 8Z" fill="#FFD700"/>
<path d="M50 9.25C72.5056 9.25 90.75 27.4944 90.75 50C90.75 67.2538 80.0263 82.0056 64.876 87.9492L64.5381 88.082L64.3242 88.375L51.3838 106.063L51.3818 106.065C51.2691 106.22 51.1267 106.356 50.9609 106.465L50.7881 106.564C50.5469 106.685 50.2763 106.75 50 106.75C49.7929 106.75 49.5891 106.714 49.3984 106.645L49.2119 106.564C49.0311 106.474 48.8719 106.354 48.7402 106.213L48.6182 106.065L48.6162 106.063L35.6758 88.375L35.4619 88.082L35.124 87.9492L34.417 87.665C19.641 81.5449 9.25001 66.9843 9.25 50C9.25 27.4944 27.4944 9.25 50 9.25Z" stroke="white" stroke-width="2.5"/>
</g>
<path d="M50 20.9004C66.0715 20.9004 79.0996 33.9285 79.0996 50C79.0996 66.0715 66.0715 79.0996 50 79.0996C33.9285 79.0996 20.9004 66.0715 20.9004 50C20.9004 33.9285 33.9285 20.9004 50 20.9004Z" fill="#AA60C8" stroke="white" stroke-width="1.8"/>
<g clip-path="url(#clip0_224_191)">
<path d="M58.9117 66.1618H61.3529C62.5882 66.1618 63.6029 65.2206 63.75 64.0147L66.1764 39.7794H58.8235V33.8235H55.9264V39.7794H48.6176L49.0588 43.2206C51.5735 43.9118 53.9264 45.1618 55.3382 46.5441C57.4558 48.6324 58.9117 50.7941 58.9117 54.3235V66.1618ZM33.8235 64.6912V63.2353H55.9264V64.6912C55.9264 65.5 55.2647 66.1618 54.4411 66.1618H35.3088C34.4853 66.1618 33.8235 65.5 33.8235 64.6912ZM55.9264 54.3971C55.9264 42.6324 33.8235 42.6324 33.8235 54.3971H55.9264ZM33.8529 57.353H55.9117V60.2941H33.8529V57.353Z" fill="white"/>
</g>
<defs>
<filter id="filter0_f_224_191" x="34" y="100" width="32" height="14" filterUnits="userSpaceOnUse" color-interpolation-filters="sRGB">
<feFlood flood-opacity="0" result="BackgroundImageFix"/>
<feBlend mode="normal" in="SourceGraphic" in2="BackgroundImageFix" result="shape"/>
<feGaussianBlur stdDeviation="1" result="effect1_foregroundBlur_224_191"/>
</filter>
<filter id="filter1_d_224_191" x="0" y="0" width="100" height="116" filterUnits="userSpaceOnUse" color-interpolation-filters="sRGB">
<feFlood flood-opacity="0" result="BackgroundImageFix"/>
<feColorMatrix in="SourceAlpha" type="matrix" values="0 0 0 0 0 0 0 0 0 0 0 0 0 0 0 0 0 0 127 0" result="hardAlpha"/>
<feOffset/>
<feGaussianBlur stdDeviation="4"/>
<feComposite in2="hardAlpha" operator="out"/>
<feColorMatrix type="matrix" values="0 0 0 0 1 0 0 0 0 0.843137 0 0 0 0 0 0 0 0 0.6 0"/>
<feBlend mode="normal" in2="BackgroundImageFix" result="effect1_dropShadow_224_191"/>
<feBlend mode="normal" in="SourceGraphic" in2="effect1_dropShadow_224_191" result="shape"/>
</filter>
<clipPath id="clip0_224_191">
<rect width="35.2941" height="35.2941" fill="white" transform="translate(32.3529 32.353)"/>
</clipPath>
</defs>
</svg>
