<svg width="100" height="116" viewBox="0 0 100 116" fill="none" xmlns="http://www.w3.org/2000/svg">
<g filter="url(#filter0_f_224_106)">
<ellipse cx="50.0002" cy="107" rx="14" ry="4.99999" fill="#FFD700" fill-opacity="0.39"/>
</g>
<g filter="url(#filter1_d_224_106)">
<path fill-rule="evenodd" clip-rule="evenodd" d="M50 8C73.196 8 92 26.804 92 50C92 67.785 80.9455 82.9882 65.3327 89.1133L52.3922 106.801C52.1224 107.171 51.7642 107.474 51.3479 107.682C50.9315 107.891 50.4692 108 50 108C49.5308 108 49.0685 107.891 48.6521 107.682C48.2358 107.474 47.8776 107.171 47.6078 106.801L34.6673 89.1133C19.0545 82.9882 8 67.785 8 50C8 26.804 26.804 8 50 8Z" fill="#FFD700"/>
<path d="M50 9.25C72.5056 9.25 90.75 27.4944 90.75 50C90.75 67.2538 80.0263 82.0056 64.876 87.9492L64.5381 88.082L64.3242 88.375L51.3838 106.063L51.3818 106.065C51.2691 106.22 51.1267 106.356 50.9609 106.465L50.7881 106.564C50.5469 106.685 50.2763 106.75 50 106.75C49.7929 106.75 49.5891 106.714 49.3984 106.645L49.2119 106.564C49.0311 106.474 48.8719 106.354 48.7402 106.213L48.6182 106.065L48.6162 106.063L35.6758 88.375L35.4619 88.082L35.124 87.9492L34.417 87.665C19.641 81.5449 9.25002 66.9843 9.25 50C9.25 27.4944 27.4944 9.25 50 9.25Z" stroke="white" stroke-width="2.5"/>
</g>
<path d="M50 20.9004C66.0715 20.9004 79.0996 33.9286 79.0996 50C79.0996 66.0714 66.0715 79.0996 50 79.0996C33.9285 79.0996 20.9004 66.0714 20.9004 50C20.9004 33.9286 33.9285 20.9004 50 20.9004Z" fill="#A76545" stroke="#F6F6F6" stroke-width="1.8"/>
<g clip-path="url(#clip0_224_106)">
<path d="M65.9581 49.5792C65.6055 48.6569 64.8756 48.2085 63.7263 48.2085H60.7558V47.2205C60.7558 46.2555 59.9708 45.4705 59.0058 45.4705H39.0216C38.0565 45.4705 37.2715 46.2555 37.2715 47.2205V53.0383C37.2715 59.3898 42.439 64.5574 48.7906 64.5574H49.237C53.665 64.5574 57.5151 62.0443 59.4425 58.371H61.8309C64.2723 58.371 66.2581 56.3849 66.2581 53.9438V52.5613C66.2581 51.4313 66.2581 50.3642 65.9581 49.5792ZM49.237 64.0057H48.7906C42.7429 64.0057 37.823 59.0857 37.823 53.038V47.2203C37.823 46.5593 38.3606 46.0217 39.0216 46.0217H59.006C59.667 46.0217 60.2047 46.5593 60.2047 47.2203V48.4754C60.2047 48.4785 60.203 48.4809 60.203 48.484C60.203 48.487 60.2047 48.4895 60.2047 48.4925V53.0377C60.2047 54.7983 59.7853 56.4618 59.0449 57.9378C59.0284 57.961 59.0149 57.9855 59.006 58.0134C57.1892 61.5662 53.4938 64.0057 49.237 64.0057ZM65.7067 53.9435C65.7067 56.0805 63.9679 57.8193 61.8309 57.8193H59.7127C60.3806 56.3617 60.7561 54.7432 60.7561 53.038V48.7597H63.7266C64.6451 48.7597 65.1745 49.0732 65.4433 49.7761C65.7072 50.466 65.707 51.4837 65.707 52.561V53.9435H65.7067Z" fill="white" stroke="white" stroke-width="2"/>
<path d="M42.8496 42.7655C42.9015 42.8518 42.9927 42.8992 43.0862 42.8992C43.1345 42.8992 43.1835 42.8865 43.2279 42.8598C43.3586 42.7815 43.4008 42.6122 43.3225 42.4815L42.4642 41.0507C41.98 40.2439 42.1068 39.2154 42.7721 38.55L43.0573 38.2649C43.6324 37.6897 43.9073 36.8653 43.7921 36.0599L43.3592 33.029C43.3377 32.8782 43.1993 32.775 43.0473 32.7952C42.8968 32.8167 42.792 32.9562 42.8135 33.107L43.2464 36.1379C43.3371 36.7724 43.1207 37.4217 42.6674 37.8748L42.3823 38.1599C41.5377 39.0045 41.3769 40.3098 41.9915 41.3344L42.8496 42.7655Z" fill="white" stroke="white" stroke-width="2"/>
<path d="M48.2245 42.7655C48.2763 42.8518 48.3676 42.8992 48.4611 42.8992C48.5093 42.8992 48.5584 42.8865 48.6028 42.8598C48.7335 42.7815 48.7757 42.6122 48.6974 42.4815L47.839 41.0507C47.3548 40.2436 47.4814 39.2154 48.1467 38.55L48.4319 38.2649C49.007 37.6897 49.2819 36.8653 49.167 36.0599L48.7341 33.029C48.7126 32.8782 48.5733 32.775 48.4222 32.7952C48.2717 32.8167 48.1669 32.9562 48.1884 33.107L48.6213 36.1379C48.712 36.7724 48.4953 37.4217 48.0422 37.8748L47.7571 38.1599C46.9126 39.0045 46.7518 40.3098 47.3664 41.3344L48.2245 42.7655Z" fill="white" stroke="white" stroke-width="2"/>
<path d="M53.5994 42.7655C53.6513 42.8518 53.7426 42.8992 53.836 42.8992C53.8843 42.8992 53.9334 42.8865 53.9778 42.8598C54.1085 42.7815 54.1506 42.6122 54.0723 42.4815L53.2137 41.0507C52.7295 40.2439 52.8563 39.2154 53.5217 38.55L53.8068 38.2649C54.382 37.6897 54.6569 36.8653 54.5419 36.0599L54.109 33.029C54.0875 32.8782 53.9488 32.775 53.7971 32.7952C53.6466 32.8167 53.5418 32.9562 53.5633 33.107L53.9962 36.1379C54.0869 36.7724 53.8702 37.4217 53.4172 37.8748L53.1321 38.1599C52.2875 39.0045 52.1267 40.3098 52.7414 41.3344L53.5994 42.7655Z" fill="white" stroke="white" stroke-width="2"/>
</g>
<defs>
<filter id="filter0_f_224_106" x="34.0002" y="100" width="32" height="14" filterUnits="userSpaceOnUse" color-interpolation-filters="sRGB">
<feFlood flood-opacity="0" result="BackgroundImageFix"/>
<feBlend mode="normal" in="SourceGraphic" in2="BackgroundImageFix" result="shape"/>
<feGaussianBlur stdDeviation="1" result="effect1_foregroundBlur_224_106"/>
</filter>
<filter id="filter1_d_224_106" x="0" y="0" width="100" height="116" filterUnits="userSpaceOnUse" color-interpolation-filters="sRGB">
<feFlood flood-opacity="0" result="BackgroundImageFix"/>
<feColorMatrix in="SourceAlpha" type="matrix" values="0 0 0 0 0 0 0 0 0 0 0 0 0 0 0 0 0 0 127 0" result="hardAlpha"/>
<feOffset/>
<feGaussianBlur stdDeviation="4"/>
<feComposite in2="hardAlpha" operator="out"/>
<feColorMatrix type="matrix" values="0 0 0 0 1 0 0 0 0 0.843137 0 0 0 0 0 0 0 0 0.6 0"/>
<feBlend mode="normal" in2="BackgroundImageFix" result="effect1_dropShadow_224_106"/>
<feBlend mode="normal" in="SourceGraphic" in2="effect1_dropShadow_224_106" result="shape"/>
</filter>
<clipPath id="clip0_224_106">
<rect width="35.2941" height="35.2941" fill="white" transform="translate(34.1176 31.4689)"/>
</clipPath>
</defs>
</svg>
