<svg width="100" height="116" viewBox="0 0 100 116" fill="none" xmlns="http://www.w3.org/2000/svg">
<g filter="url(#filter0_f_224_135)">
<ellipse cx="50.0002" cy="107" rx="14" ry="4.99999" fill="#FFD700" fill-opacity="0.39"/>
</g>
<g filter="url(#filter1_d_224_135)">
<path fill-rule="evenodd" clip-rule="evenodd" d="M50 8C73.196 8 92 26.804 92 50C92 67.785 80.9455 82.9882 65.3327 89.1133L52.3922 106.801C52.1224 107.171 51.7642 107.474 51.3479 107.682C50.9315 107.891 50.4692 108 50 108C49.5308 108 49.0685 107.891 48.6521 107.682C48.2358 107.474 47.8776 107.171 47.6078 106.801L34.6673 89.1133C19.0545 82.9882 8 67.785 8 50C8 26.804 26.804 8 50 8Z" fill="#FFD700"/>
<path d="M50 9.25C72.5056 9.25 90.75 27.4944 90.75 50C90.75 67.2538 80.0263 82.0056 64.876 87.9492L64.5381 88.082L64.3242 88.375L51.3838 106.063L51.3818 106.065C51.2691 106.22 51.1267 106.356 50.9609 106.465L50.7881 106.564C50.5469 106.685 50.2763 106.75 50 106.75C49.7929 106.75 49.5891 106.714 49.3984 106.645L49.2119 106.564C49.0311 106.474 48.8719 106.354 48.7402 106.213L48.6182 106.065L48.6162 106.063L35.6758 88.375L35.4619 88.082L35.124 87.9492L34.417 87.665C19.641 81.5449 9.25002 66.9843 9.25 50C9.25 27.4944 27.4944 9.25 50 9.25Z" stroke="white" stroke-width="2.5"/>
</g>
<path d="M50 20.9023C66.0716 20.9023 79.1006 33.9305 79.1006 50.002C79.1006 66.0734 66.0716 79.1016 50 79.1016C33.9285 79.1015 20.9004 66.0734 20.9004 50.002C20.9004 33.9305 33.9285 20.9024 50 20.9023Z" fill="#3478F5" stroke="white" stroke-width="1.8"/>
<path d="M35.9999 35.2676C34.5132 35.2676 33.2742 36.9195 34.761 38.4063L48.2242 51.8695V62.4419H42.8555C41.8643 62.4419 41.1209 63.1853 41.1209 64.1764C41.1209 65.1676 41.8643 65.911 42.8555 65.911H57.1447C58.1359 65.911 58.8792 65.1676 58.8792 64.1764C58.8792 63.1853 58.1359 62.4419 57.1447 62.4419H51.7759V51.8695L65.2392 38.4063C66.7259 36.9195 65.487 35.2676 64.0002 35.2676H35.9999ZM39.9646 38.654H59.953L49.9588 48.7308L39.9646 38.654Z" fill="white"/>
<defs>
<filter id="filter0_f_224_135" x="34.0002" y="100" width="32" height="14" filterUnits="userSpaceOnUse" color-interpolation-filters="sRGB">
<feFlood flood-opacity="0" result="BackgroundImageFix"/>
<feBlend mode="normal" in="SourceGraphic" in2="BackgroundImageFix" result="shape"/>
<feGaussianBlur stdDeviation="1" result="effect1_foregroundBlur_224_135"/>
</filter>
<filter id="filter1_d_224_135" x="0" y="0" width="100" height="116" filterUnits="userSpaceOnUse" color-interpolation-filters="sRGB">
<feFlood flood-opacity="0" result="BackgroundImageFix"/>
<feColorMatrix in="SourceAlpha" type="matrix" values="0 0 0 0 0 0 0 0 0 0 0 0 0 0 0 0 0 0 127 0" result="hardAlpha"/>
<feOffset/>
<feGaussianBlur stdDeviation="4"/>
<feComposite in2="hardAlpha" operator="out"/>
<feColorMatrix type="matrix" values="0 0 0 0 1 0 0 0 0 0.843137 0 0 0 0 0 0 0 0 0.6 0"/>
<feBlend mode="normal" in2="BackgroundImageFix" result="effect1_dropShadow_224_135"/>
<feBlend mode="normal" in="SourceGraphic" in2="effect1_dropShadow_224_135" result="shape"/>
</filter>
</defs>
</svg>
