<svg width="94" height="110" viewBox="0 0 94 110" fill="none" xmlns="http://www.w3.org/2000/svg">
<g filter="url(#filter0_f_217_17)">
<ellipse cx="47.0002" cy="103" rx="14" ry="4.99999" fill="#A76545" fill-opacity="0.39"/>
</g>
<g filter="url(#filter1_d_217_17)">
<path fill-rule="evenodd" clip-rule="evenodd" d="M47 4C70.196 4 89 22.804 89 46C89 63.785 77.9455 78.9882 62.3327 85.1133L49.3922 102.801C49.1224 103.171 48.7642 103.474 48.3479 103.682C47.9315 103.891 47.4692 104 47 104C46.5308 104 46.0685 103.891 45.6521 103.682C45.2358 103.474 44.8776 103.171 44.6078 102.801L31.6673 85.1133C16.0545 78.9882 5 63.785 5 46C5 22.804 23.804 4 47 4Z" fill="white"/>
</g>
<path d="M81.0001 46.0019C81.0001 27.2242 65.7777 12.002 47 12.002C28.2224 12.002 13 27.2242 13 46.0019C13 64.7795 28.2224 80.0018 47 80.0018C65.7777 80.0018 81.0001 64.7795 81.0001 46.0019Z" fill="#A76545"/>
<path d="M65.0859 45.525C64.6862 44.4797 63.8591 43.9716 62.5566 43.9716H59.19V42.8519C59.19 41.7582 58.3003 40.8685 57.2066 40.8685H34.5578C33.4641 40.8685 32.5744 41.7582 32.5744 42.8519V49.4453C32.5744 56.6438 38.4309 62.5003 45.6294 62.5003H46.1353C51.1537 62.5003 55.5172 59.6522 57.7016 55.4891H60.4084C63.1753 55.4891 65.4259 53.2382 65.4259 50.4716V48.9047C65.4259 47.6241 65.4259 46.4147 65.0859 45.525ZM46.1353 61.875H45.6294C38.7753 61.875 33.1994 56.2991 33.1994 49.445V42.8516C33.1994 42.1025 33.8087 41.4932 34.5578 41.4932H57.2069C57.9559 41.4932 58.5653 42.1025 58.5653 42.8516V44.2741C58.5653 44.2775 58.5634 44.2803 58.5634 44.2838C58.5634 44.2872 58.5653 44.29 58.5653 44.2935V49.4447C58.5653 51.44 58.09 53.3253 57.2509 54.9982C57.2322 55.0244 57.2169 55.0522 57.2069 55.0838C55.1478 59.1103 50.9597 61.875 46.1353 61.875ZM64.8009 50.4713C64.8009 52.8932 62.8303 54.8638 60.4084 54.8638H58.0078C58.7647 53.2119 59.1903 51.3775 59.1903 49.445V44.5963H62.5569C63.5978 44.5963 64.1978 44.9516 64.5025 45.7482C64.8016 46.53 64.8012 47.6835 64.8012 48.9044V50.4713H64.8009Z" fill="white" stroke="white" stroke-width="2"/>
<path d="M38.8963 37.8028C38.955 37.9006 39.0584 37.9544 39.1644 37.9544C39.2191 37.9544 39.2747 37.94 39.325 37.9097C39.4731 37.821 39.5209 37.6291 39.4322 37.481L38.4594 35.8594C37.9106 34.945 38.0544 33.7794 38.8084 33.0253L39.1316 32.7022C39.7834 32.0503 40.095 31.116 39.9644 30.2031L39.4738 26.7681C39.4494 26.5972 39.2925 26.4803 39.1203 26.5031C38.9497 26.5275 38.8309 26.6856 38.8553 26.8566L39.3459 30.2916C39.4488 31.0106 39.2034 31.7466 38.6897 32.26L38.3666 32.5831C37.4094 33.5403 37.2272 35.0197 37.9238 36.181L38.8963 37.8028Z" fill="white" stroke="white" stroke-width="2"/>
<path d="M44.9878 37.8028C45.0466 37.9006 45.15 37.9544 45.2559 37.9544C45.3106 37.9544 45.3662 37.94 45.4166 37.9097C45.5647 37.821 45.6125 37.6291 45.5237 37.481L44.5509 35.8594C44.0022 34.9447 44.1456 33.7794 44.8997 33.0253L45.2228 32.7022C45.8747 32.0503 46.1862 31.116 46.0559 30.2031L45.5653 26.7681C45.5409 26.5972 45.3831 26.4803 45.2119 26.5031C45.0412 26.5275 44.9225 26.6856 44.9469 26.8566L45.4375 30.2916C45.5403 31.0106 45.2947 31.7466 44.7812 32.26L44.4581 32.5831C43.5009 33.5403 43.3187 35.0197 44.0153 36.181L44.9878 37.8028Z" fill="white" stroke="white" stroke-width="2"/>
<path d="M51.0794 37.8028C51.1381 37.9006 51.2416 37.9544 51.3475 37.9544C51.4022 37.9544 51.4578 37.94 51.5081 37.9097C51.6562 37.821 51.7041 37.6291 51.6153 37.481L50.6422 35.8594C50.0934 34.945 50.2372 33.7794 50.9912 33.0253L51.3144 32.7022C51.9662 32.0503 52.2778 31.116 52.1475 30.2031L51.6569 26.7681C51.6325 26.5972 51.4753 26.4803 51.3034 26.5031C51.1328 26.5275 51.0141 26.6856 51.0384 26.8566L51.5291 30.2916C51.6319 31.0106 51.3862 31.7466 50.8728 32.26L50.5497 32.5831C49.5925 33.5403 49.4103 35.0197 50.1069 36.181L51.0794 37.8028Z" fill="white" stroke="white" stroke-width="2"/>
<defs>
<filter id="filter0_f_217_17" x="31.0002" y="96" width="32" height="14" filterUnits="userSpaceOnUse" color-interpolation-filters="sRGB">
<feFlood flood-opacity="0" result="BackgroundImageFix"/>
<feBlend mode="normal" in="SourceGraphic" in2="BackgroundImageFix" result="shape"/>
<feGaussianBlur stdDeviation="1" result="effect1_foregroundBlur_217_17"/>
</filter>
<filter id="filter1_d_217_17" x="0" y="0" width="94" height="110" filterUnits="userSpaceOnUse" color-interpolation-filters="sRGB">
<feFlood flood-opacity="0" result="BackgroundImageFix"/>
<feColorMatrix in="SourceAlpha" type="matrix" values="0 0 0 0 0 0 0 0 0 0 0 0 0 0 0 0 0 0 127 0" result="hardAlpha"/>
<feOffset dy="1"/>
<feGaussianBlur stdDeviation="2.5"/>
<feComposite in2="hardAlpha" operator="out"/>
<feColorMatrix type="matrix" values="0 0 0 0 0 0 0 0 0 0 0 0 0 0 0 0 0 0 0.1 0"/>
<feBlend mode="normal" in2="BackgroundImageFix" result="effect1_dropShadow_217_17"/>
<feBlend mode="normal" in="SourceGraphic" in2="effect1_dropShadow_217_17" result="shape"/>
</filter>
</defs>
</svg>
