<svg width="94" height="110" viewBox="0 0 94 110" fill="none" xmlns="http://www.w3.org/2000/svg">
<g filter="url(#filter0_f_210_141)">
<ellipse cx="47" cy="103" rx="14" ry="5" fill="#F65751" fill-opacity="0.4"/>
</g>
<g filter="url(#filter1_d_210_141)">
<path fill-rule="evenodd" clip-rule="evenodd" d="M47 4C70.196 4 89 22.804 89 46C89 63.7851 77.9455 78.9883 62.3327 85.1133L49.3922 102.801C49.1224 103.172 48.7642 103.474 48.3479 103.682C47.9315 103.891 47.4692 104 47 104C46.5308 104 46.0685 103.891 45.6521 103.682C45.2358 103.474 44.8776 103.172 44.6078 102.801L31.6673 85.1133C16.0545 78.9883 5 63.7851 5 46C5 22.804 23.804 4 47 4Z" fill="white"/>
</g>
<path d="M81 46C81 27.2223 65.7777 12 47 12C28.2223 12 13 27.2223 13 46C13 64.7776 28.2223 79.9999 47 79.9999C65.7777 79.9999 81 64.7776 81 46Z" fill="#F65751"/>
<g clip-path="url(#clip0_210_141)">
<path d="M57.1 64.3167H59.8667C61.2667 64.3167 62.4167 63.25 62.5833 61.8834L65.3333 34.4167H57V27.6667H53.7167V34.4167H45.4333L45.9333 38.3167C48.7833 39.1 51.45 40.5167 53.05 42.0834C55.45 44.45 57.1 46.9 57.1 50.9V64.3167ZM28.6667 62.65V61H53.7167V62.65C53.7167 63.5667 52.9667 64.3167 52.0333 64.3167H30.35C29.4167 64.3167 28.6667 63.5667 28.6667 62.65ZM53.7167 50.9834C53.7167 37.65 28.6667 37.65 28.6667 50.9834H53.7167ZM28.7 54.3334H53.7V57.6667H28.7V54.3334Z" fill="white"/>
</g>
<defs>
<filter id="filter0_f_210_141" x="31" y="96.0001" width="32" height="14" filterUnits="userSpaceOnUse" color-interpolation-filters="sRGB">
<feFlood flood-opacity="0" result="BackgroundImageFix"/>
<feBlend mode="normal" in="SourceGraphic" in2="BackgroundImageFix" result="shape"/>
<feGaussianBlur stdDeviation="1" result="effect1_foregroundBlur_210_141"/>
</filter>
<filter id="filter1_d_210_141" x="0" y="0" width="94" height="110" filterUnits="userSpaceOnUse" color-interpolation-filters="sRGB">
<feFlood flood-opacity="0" result="BackgroundImageFix"/>
<feColorMatrix in="SourceAlpha" type="matrix" values="0 0 0 0 0 0 0 0 0 0 0 0 0 0 0 0 0 0 127 0" result="hardAlpha"/>
<feOffset dy="1"/>
<feGaussianBlur stdDeviation="2.5"/>
<feComposite in2="hardAlpha" operator="out"/>
<feColorMatrix type="matrix" values="0 0 0 0 0 0 0 0 0 0 0 0 0 0 0 0 0 0 0.1 0"/>
<feBlend mode="normal" in2="BackgroundImageFix" result="effect1_dropShadow_210_141"/>
<feBlend mode="normal" in="SourceGraphic" in2="effect1_dropShadow_210_141" result="shape"/>
</filter>
<clipPath id="clip0_210_141">
<rect width="40" height="40" fill="white" transform="translate(27 26.0001)"/>
</clipPath>
</defs>
</svg>
