<svg width="94" height="110" viewBox="0 0 94 110" fill="none" xmlns="http://www.w3.org/2000/svg">
<g filter="url(#filter0_f_212_2)">
<ellipse cx="47" cy="103" rx="14" ry="5" fill="#F65751" fill-opacity="0.4"/>
</g>
<g filter="url(#filter1_d_212_2)">
<path fill-rule="evenodd" clip-rule="evenodd" d="M47 4C70.196 4 89 22.804 89 46C89 63.7851 77.9455 78.9883 62.3327 85.1133L49.3922 102.801C49.1224 103.172 48.7642 103.474 48.3479 103.682C47.9315 103.891 47.4692 104 47 104C46.5308 104 46.0685 103.891 45.6521 103.682C45.2358 103.474 44.8776 103.172 44.6078 102.801L31.6673 85.1133C16.0545 78.9883 5 63.7851 5 46C5 22.804 23.804 4 47 4Z" fill="white"/>
</g>
<path d="M81 46C81 27.2223 65.7777 12 47 12C28.2223 12 13 27.2223 13 46C13 64.7777 28.2223 80 47 80C65.7777 80 81 64.7777 81 46Z" fill="#F65751"/>
<g clip-path="url(#clip0_212_2)">
<path d="M62.75 28.5V63.5H59.25V49.5H54V37.25C54 34.9294 54.9219 32.7038 56.5628 31.0628C58.2038 29.4219 60.4294 28.5 62.75 28.5ZM41.75 49.325V63.5H38.25V49.325C36.2739 48.921 34.498 47.8469 33.2225 46.2844C31.947 44.722 31.2502 42.767 31.25 40.75V30.25H34.75V42.5H38.25V30.25H41.75V42.5H45.25V30.25H48.75V40.75C48.7498 42.767 48.053 44.722 46.7775 46.2844C45.502 47.8469 43.7261 48.921 41.75 49.325Z" fill="white"/>
</g>
<defs>
<filter id="filter0_f_212_2" x="31" y="96.0001" width="32" height="14" filterUnits="userSpaceOnUse" color-interpolation-filters="sRGB">
<feFlood flood-opacity="0" result="BackgroundImageFix"/>
<feBlend mode="normal" in="SourceGraphic" in2="BackgroundImageFix" result="shape"/>
<feGaussianBlur stdDeviation="1" result="effect1_foregroundBlur_212_2"/>
</filter>
<filter id="filter1_d_212_2" x="0" y="0" width="94" height="110" filterUnits="userSpaceOnUse" color-interpolation-filters="sRGB">
<feFlood flood-opacity="0" result="BackgroundImageFix"/>
<feColorMatrix in="SourceAlpha" type="matrix" values="0 0 0 0 0 0 0 0 0 0 0 0 0 0 0 0 0 0 127 0" result="hardAlpha"/>
<feOffset dy="1"/>
<feGaussianBlur stdDeviation="2.5"/>
<feComposite in2="hardAlpha" operator="out"/>
<feColorMatrix type="matrix" values="0 0 0 0 0 0 0 0 0 0 0 0 0 0 0 0 0 0 0.1 0"/>
<feBlend mode="normal" in2="BackgroundImageFix" result="effect1_dropShadow_212_2"/>
<feBlend mode="normal" in="SourceGraphic" in2="effect1_dropShadow_212_2" result="shape"/>
</filter>
<clipPath id="clip0_212_2">
<rect width="42" height="42" fill="white" transform="translate(26 25)"/>
</clipPath>
</defs>
</svg>
