<svg width="42" height="54" viewBox="0 0 42 54" fill="none" xmlns="http://www.w3.org/2000/svg">
<path fill-rule="evenodd" clip-rule="evenodd" d="M21 0C32.598 0 42 9.40202 42 21C42 31.1603 34.7844 39.6353 25.198 41.5803L21.6524 46.6575C21.5788 46.7633 21.4812 46.8497 21.3676 46.9093C21.254 46.9689 21.128 47 21 47C20.872 47 20.746 46.9689 20.6324 46.9093C20.5188 46.8497 20.4212 46.7633 20.3476 46.6575L16.802 41.5803C7.21557 39.6353 0 31.1603 0 21C0 9.40202 9.40202 0 21 0Z" fill="#F75751"/>
<path d="M23 52C23 50.8954 22.1046 50 21 50C19.8954 50 19 50.8954 19 52C19 53.1046 19.8954 54 21 54C22.1046 54 23 53.1046 23 52Z" fill="#F75751"/>
<g clip-path="url(#clip0_14_121)">
<path d="M26.05 30.1583H27.4333C28.1333 30.1583 28.7083 29.625 28.7917 28.9417L30.1667 15.2083H26V11.8333H24.3583V15.2083H20.2167L20.4667 17.1583C21.8917 17.55 23.225 18.2583 24.025 19.0417C25.225 20.225 26.05 21.45 26.05 23.45V30.1583ZM11.8333 29.325V28.5H24.3583V29.325C24.3583 29.7833 23.9833 30.1583 23.5167 30.1583H12.675C12.2083 30.1583 11.8333 29.7833 11.8333 29.325ZM24.3583 23.4917C24.3583 16.825 11.8333 16.825 11.8333 23.4917H24.3583ZM11.85 25.1667H24.35V26.8333H11.85V25.1667Z" fill="white"/>
</g>
<defs>
<clipPath id="clip0_14_121">
<rect width="20" height="20" fill="white" transform="translate(11 11)"/>
</clipPath>
</defs>
</svg>
